:FULLY-SPECIFIED
:FORCE-ALL-JOINTS-BE-3DOF
:DEGREES
1631
root -14.8391 14.5691 19.3658 -15.781 -69.8577 15.7676
lfemur 12.277 -11.7495 -11.6668
ltibia 29.0566 -0 0
lfoot -21.607 29.0558 0.0298369
ltoes -43.5256 0 0
rfemur -53.0274 -16.0868 8.8675
rtibia 67.026 -0 0
rfoot -10.0707 11.9598 0.105461
rtoes 4.15557 -0 0
lowerback 12.7004 4.3687 -7.56919
upperback -0.675429 4.58236 -0.608682
thorax -8.46214 2.52327 2.65848
lowerneck 0.94719 -13.1152 -12.8662
upperneck 3.72995 -17.9872 10.2784
head 2.99842 -9.00386 4.3397
lclavicle 3.23522e-14 -3.57812e-15 0
lhumerus -75.3262 -14.8676 104.803
lradius 105.575 -0 0
lwrist 56.3653 0 0
lhand -12.3815 50.0815 0.270237
lfingers 7.12502 -0 0
lthumb 13.6557 79.1622 0.103559
rclavicle 3.23522e-14 -3.57812e-15 0
rhumerus 48.7805 -6.44099 -57.6459
rradius 12.6731 -0 0
rwrist 27.3144 0 0
rhand -20.7025 -36.3371 -0.0278374
rfingers 7.12502 -0 0
rthumb 5.67666 -66.42 -0.0892063
1632
root -14.8621 14.5686 19.3706 -15.8491 -70.0049 15.9378
lfemur 12.281 -11.7148 -11.745
ltibia 28.8976 -0 0
lfoot -21.542 29.0937 0.0267052
ltoes -43.497 0 0
rfemur -53.0852 -16.053 8.86056
rtibia 67.1626 -0 0
rfoot -10.2267 11.8282 0.104129
rtoes 4.06666 -0 0
lowerback 12.7057 4.33762 -7.57397
upperback -0.687112 4.54242 -0.577955
thorax -8.47374 2.50573 2.70416
lowerneck 0.974915 -13.0918 -12.8423
upperneck 3.70002 -17.9568 10.2631
head 2.98323 -8.99006 4.33779
lclavicle 3.23522e-14 -3.57812e-15 0
lhumerus -75.0289 -15.0604 104.771
lradius 105.381 -0 0
lwrist 56.2295 0 0
lhand -13.2315 49.8238 0.251767
lfingers 7.12502 -0 0
lthumb 12.8407 79.0078 0.101774
rclavicle 3.23522e-14 -3.57812e-15 0
rhumerus 48.539 -6.21562 -57.6533
rradius 13.2031 -0 0
rwrist 27.0931 0 0
rhand -20.4405 -36.1184 -0.0150367
rfingers 7.12502 -0 0
rthumb 5.92807 -66.1783 -0.071104
1633
root -14.8851 14.5681 19.3753 -15.9086 -70.152 16.0951
lfemur 12.265 -11.6858 -11.8261
ltibia 28.7714 -0 0
lfoot -21.4834 29.1347 0.0235434
ltoes -43.4697 0 0
rfemur -53.1314 -16.0018 8.84067
rtibia 67.2606 -0 0
rfoot -10.3639 11.6899 0.100834
rtoes 3.96351 -0 0
lowerback 12.7131 4.30468 -7.57961
upperback -0.696423 4.49991 -0.545641
thorax -8.4835 2.48689 2.75256
lowerneck 1.00724 -13.0724 -12.822
upperneck 3.66488 -17.9323 10.2558
head 2.96738 -8.97929 4.3388
lclavicle 3.23522e-14 -3.57812e-15 0
lhumerus -74.7233 -15.266 104.738
lradius 105.193 -0 0
lwrist 56.0924 0 0
lhand -14.038 49.57 0.230012
lfingers 7.12502 -0 0
lthumb 12.0673 78.8523 0.0975765
rclavicle 3.23522e-14 -3.57812e-15 0
rhumerus 48.3032 -5.98658 -57.638
rradius 13.7596 -0 0
rwrist 26.8287 0 0
rhand -20.1686 -35.9116 -0.00423658
rfingers 7.12502 -0 0
rthumb 6.18903 -65.9473 -0.0547431
1634
root -14.9081 14.5676 19.3801 -15.9577 -70.2981 16.2371
lfemur 12.2285 -11.6635 -11.9099
ltibia 28.6795 -0 0
lfoot -21.4317 29.1794 0.0203717
ltoes -43.4439 0 0
rfemur -53.1651 -15.9323 8.80687
rtibia 67.3168 -0 0
rfoot -10.4808 11.5455 0.095516
rtoes 3.84566 -0 0
lowerback 12.7224 4.26995 -7.58615
upperback -0.703194 4.4549 -0.511768
thorax -8.49124 2.46677 2.80365
lowerneck 1.04455 -13.0573 -12.8056
upperneck 3.62423 -17.9146 10.2571
head 2.9509 -8.97194 4.34302
lclavicle 3.23522e-14 -3.57812e-15 0
lhumerus -74.4108 -15.4845 104.707
lradius 105.013 -0 0
lwrist 55.9553 0 0
lhand -14.7966 49.3213 0.205411
lfingers 7.12502 -0 0
lthumb 11.3399 78.6963 0.0910927
rclavicle 3.23522e-14 -3.57812e-15 0
rhumerus 48.0758 -5.75525 -57.5985
rradius 14.3407 -0 0
rwrist 26.5205 0 0
rhand -19.8874 -35.7182 0.0044351
rfingers 7.12502 -0 0
rthumb 6.45893 -65.7286 -0.0402785
1635
root -14.9311 14.5671 19.3848 -15.9947 -70.4422 16.3616
lfemur 12.1711 -11.6491 -11.9966
ltibia 28.6241 -0 0
lfoot -21.3876 29.2282 0.0172114
ltoes -43.4197 0 0
rfemur -53.1856 -15.8434 8.75824
rtibia 67.3279 -0 0
rfoot -10.5759 11.3953 0.0881317
rtoes 3.71267 -0 0
lowerback 12.7337 4.23347 -7.59364
upperback -0.707259 4.40745 -0.476368
thorax -8.49679 2.44537 2.85741
lowerneck 1.08726 -13.0471 -12.7938
upperneck 3.57776 -17.9043 10.2681
head 2.93379 -8.96838 4.35073
lclavicle 3.23522e-14 -3.57812e-15 0
lhumerus -74.0933 -15.7158 104.676
lradius 104.843 -0 0
lwrist 55.8196 0 0
lhand -15.5028 49.0785 0.178457
lfingers 7.12502 -0 0
lthumb 10.6626 78.5404 0.0824902
rclavicle 3.23522e-14 -3.57812e-15 0
rhumerus 47.8596 -5.52304 -57.5333
rradius 14.9444 -0 0
rwrist 26.1679 0 0
rhand -19.5976 -35.5395 0.0108749
rfingers 7.12502 -0 0
rthumb 6.7372 -65.5236 -0.027841
1636
root -14.9541 14.5665 19.3896 -16.0176 -70.5836 16.4663
lfemur 12.0922 -11.6435 -12.0861
ltibia 28.6067 -0 0
lfoot -21.3516 29.2816 0.014086
ltoes -43.3974 0 0
rfemur -53.1921 -15.7341 8.69383
rtibia 67.2908 -0 0
rfoot -10.6477 11.2397 0.0786539
rtoes 3.56407 -0 0
lowerback 12.747 4.19531 -7.60211
upperback -0.708452 4.35763 -0.439472
thorax -8.49998 2.42274 2.91379
lowerneck 1.13576 -13.0423 -12.7869
upperneck 3.52518 -17.9024 10.2893
head 2.91604 -8.96901 4.36221
lclavicle 3.23522e-14 -3.57812e-15 0
lhumerus -73.7722 -15.96 104.647
lradius 104.684 -0 0
lwrist 55.6866 0 0
lhand -16.1522 48.8429 0.149691
lfingers 7.12502 -0 0
lthumb 10.0398 78.3852 0.0719729
rclavicle 3.23522e-14 -3.57812e-15 0
rhumerus 47.6574 -5.29136 -57.4411
rradius 15.5688 -0 0
rwrist 25.7703 0 0
rhand -19.2997 -35.3771 0.0150042
rfingers 7.12502 -0 0
rthumb 7.02324 -65.3339 -0.0175371
1637
root -14.9771 14.566 19.3943 -16.0245 -70.7213 16.5487
lfemur 11.9915 -11.6479 -12.1784
ltibia 28.6294 -0 0
lfoot -21.3244 29.3399 0.011021
ltoes -43.3772 0 0
rfemur -53.1837 -15.6033 8.61276
rtibia 67.202 -0 0
rfoot -10.6947 11.0791 0.0670712
rtoes 3.3994 -0 0
lowerback 12.7623 4.15551 -7.61161
upperback -0.706606 4.30549 -0.401112
thorax -8.50064 2.39887 2.97277
lowerneck 1.19046 -13.0435 -12.7854
upperneck 3.46616 -17.9094 10.3217
head 2.89766 -8.9742 4.37775
lclavicle 3.23522e-14 -3.57812e-15 0
lhumerus -73.4493 -16.2172 104.619
lradius 104.539 -0 0
lwrist 55.5576 0 0
lhand -16.7404 48.6153 0.119696
lfingers 7.12502 -0 0
lthumb 9.47574 78.2312 0.0597789
rclavicle 3.23522e-14 -3.57812e-15 0
rhumerus 47.4722 -5.06163 -57.3203
rradius 16.212 -0 0
rwrist 25.3272 0 0
rhand -18.9944 -35.2324 0.0167696
rfingers 7.12502 -0 0
rthumb 7.31645 -65.1608 -0.00944819
1638
root -15 14.5655 19.3991 -16.0133 -70.8546 16.6064
lfemur 11.8685 -11.6633 -12.2734
ltibia 28.6938 -0 0
lfoot -21.3066 29.4037 0.0080454
ltoes -43.3593 0 0
rfemur -53.1599 -15.45 8.51415
rtibia 67.0584 -0 0
rfoot -10.7153 10.9139 0.0533874
rtoes 3.21822 -0 0
lowerback 12.7797 4.11413 -7.62218
upperback -0.701554 4.25111 -0.361321
thorax -8.4986 2.37379 3.03432
lowerneck 1.25175 -13.0511 -12.7899
upperneck 3.4004 -17.9262 10.3661
head 2.87866 -8.98435 4.39761
lclavicle 3.23522e-14 -3.57812e-15 0
lhumerus -73.1262 -16.4873 104.594
lradius 104.41 -0 0
lwrist 55.4339 0 0
lhand -17.2629 48.3968 0.089086
lfingers 7.12502 -0 0
lthumb 8.97463 78.079 0.0461771
rclavicle 3.23522e-14 -3.57812e-15 0
rhumerus 47.3066 -4.8353 -57.1694
rradius 16.8721 -0 0
rwrist 24.838 0 0
rhand -18.6822 -35.1067 0.0161427
rfingers 7.12502 -0 0
rthumb 7.61627 -65.006 -0.00363088
1639
root -15.023 14.565 19.4038 -15.9821 -70.9824 16.6369
lfemur 11.7228 -11.6908 -12.3711
ltibia 28.8019 -0 0
lfoot -21.2988 29.4734 0.0051914
ltoes -43.3438 0 0
rfemur -53.1199 -15.2732 8.39717
rtibia 66.8567 -0 0
rfoot -10.7081 10.7445 0.0376221
rtoes 3.02007 -0 0
lowerback 12.7991 4.07122 -7.63387
upperback -0.693131 4.19454 -0.320132
thorax -8.49367 2.34751 3.09839
lowerneck 1.32004 -13.0656 -12.8008
upperneck 3.32756 -17.9534 10.4233
head 2.85903 -8.99982 4.4221
lclavicle 3.23522e-14 -3.57812e-15 0
lhumerus -72.8045 -16.7703 104.571
lradius 104.298 -0 0
lwrist 55.3168 0 0
lhand -17.7154 48.1885 0.0584988
lfingers 7.12502 -0 0
lthumb 8.54075 77.9292 0.0314637
rclavicle 3.23522e-14 -3.57812e-15 0
rhumerus 47.1636 -4.61387 -56.9867
rradius 17.5471 -0 0
rwrist 24.3019 0 0
rhand -18.3638 -35.0016 0.0131202
rfingers 7.12502 -0 0
rthumb 7.92208 -64.8708 -0.000116728
1640
root -15.046 14.5645 19.4086 -15.9287 -71.104 16.6376
lfemur 11.5539 -11.7314 -12.4715
ltibia 28.9555 -0 0
lfoot -21.3016 29.5495 0.0024957
ltoes -43.3309 0 0
rfemur -53.0631 -15.0716 8.26101
rtibia 66.5937 -0 0
rfoot -10.6715 10.5712 0.0198099
rtoes 2.80449 -0 0
lowerback 12.8206 4.02685 -7.64673
upperback -0.68117 4.13585 -0.27758
thorax -8.4857 2.32006 3.16496
lowerneck 1.39574 -13.0876 -12.8186
upperneck 3.2473 -17.9919 10.4941
head 2.83876 -9.02101 4.45148
lclavicle 3.23522e-14 -3.57812e-15 0
lhumerus -72.4859 -17.0664 104.551
lradius 104.205 -0 0
lwrist 55.2078 0 0
lhand -18.0933 47.9912 0.0285854
lfingers 7.12502 -0 0
lthumb 8.17836 77.7822 0.0159585
rclavicle 3.23522e-14 -3.57812e-15 0
rhumerus 47.0459 -4.39887 -56.7708
rradius 18.235 -0 0
rwrist 23.7185 0 0
rhand -18.0399 -34.9184 0.00772397
rfingers 7.12502 -0 0
rthumb 8.23331 -64.7569 0.0010876
1641
root -15.069 14.564 19.4133 704.149 -71.2184 376.606
lfemur 11.3614 -11.7863 -12.5744
ltibia 29.1564 0 0
lfoot -21.3156 29.6324 0
ltoes -43.3209 0 0
rfemur -52.9888 -14.8443 8.10491
rtibia 66.266 0 0
rfoot -10.604 10.3944 0
rtoes 2.57102 0 0
lowerback 12.8441 3.98106 -7.66079
upperback -0.665505 4.07509 -0.233699
thorax -8.4745 2.29144 3.234
lowerneck 1.47926 -13.1175 -12.8438
upperneck 3.15927 -18.0424 10.5794
head 2.81786 -9.0483 4.48605
lclavicle 3.23522e-14 -3.57812e-15 0
lhumerus -72.1721 -17.3756 104.534
lradius 104.133 0 0
lwrist 55.108 0 0
lhand -18.3923 47.806 0
lfingers 7.12502 0 0
lthumb 7.89172 77.6387 0
rclavicle 3.23522e-14 -3.57812e-15 0
rhumerus 46.9563 -4.19189 -56.5199
rradius 18.9341 0 0
rwrist 23.0872 0 0
rhand -17.7109 -34.8587 0
rfingers 7.12502 0 0
rthumb 8.54937 -64.6656 0
1642
root -14.9854 14.5676 19.4614 -15.7399 -71.3145 16.5309
lfemur 11.1437 -11.8631 -12.6865
ltibia 29.4134 -0 0
lfoot -21.3417 29.7204 -0.00254491
ltoes -43.3257 0 0
rfemur -52.9024 -14.5808 7.92144
rtibia 65.8604 -0 0
rfoot -10.5022 10.2097 -0.0222593
rtoes 2.30139 -0 0
lowerback 12.8714 3.93124 -7.67751
upperback -0.645132 4.0086 -0.186802
thorax -8.45946 2.25993 3.309
lowerneck 1.57158 -13.1535 -12.8745
upperneck 3.06137 -18.102 10.6771
head 2.79518 -9.08038 4.52532
lclavicle -1.99779e-14 1.19271e-14 0
lhumerus -71.8393 -17.7085 104.509
lradius 104.07 -0 0
lwrist 55.0036 0 0
lhand -18.6274 47.6224 -0.0276789
lfingers 7.12502 -0 0
lthumb 7.66646 77.4899 -0.0165047
rclavicle -1.99779e-14 1.19271e-14 0
rhumerus 46.8711 -3.98041 -56.2305
rradius 19.6766 -0 0
rwrist 22.3692 0 0
rhand -17.3614 -34.8204 -0.0101307
rfingers 7.12502 -0 0
rthumb 8.88519 -64.5935 -0.00316378
1643
root -14.9018 14.5711 19.5095 -15.5895 -71.3832 16.4051
lfemur 10.9002 -11.9677 -12.8138
ltibia 29.7321 -0 0
lfoot -21.38 29.8114 -0.00538299
ltoes -43.3558 0 0
rfemur -52.8101 -14.2732 7.70519
rtibia 65.3692 -0 0
rfoot -10.3649 10.0126 -0.0472058
rtoes 1.97972 -0 0
lowerback 12.904 3.87497 -7.69817
upperback -0.619374 3.93298 -0.135342
thorax -8.44024 2.22396 3.39316
lowerneck 1.67306 -13.1933 -12.9082
upperneck 2.95212 -18.1674 10.7842
head 2.76969 -9.1156 4.56849
lclavicle -1.99779e-14 1.19271e-14 0
lhumerus -71.4637 -18.0745 104.463
lradius 104.002 -0 0
lwrist 54.8802 0 0
lhand -18.8176 47.4295 -0.0552061
lfingers 7.12502 -0 0
lthumb 7.48426 77.3275 -0.033803
rclavicle -1.99779e-14 1.19271e-14 0
rhumerus 46.7658 -3.75098 -55.9013
rradius 20.4942 -0 0
rwrist 21.5306 0 0
rhand -16.9766 -34.7999 -0.0225968
rfingers 7.12502 -0 0
rthumb 9.25495 -64.5354 -0.00809091
